<svg width="953" height="184" viewBox="0 0 953 184" fill="none" xmlns="http://www.w3.org/2000/svg">
<path d="M71.1011 183.999C57.0443 183.999 44.6629 181.139 33.9569 175.418C23.3326 169.697 14.9966 161.647 8.94893 151.268C2.98298 140.889 0 128.712 0 114.737V0.362365L29.9115 0.117188V114.001C29.9115 120.621 31.0148 126.546 33.2214 131.777C35.5097 137.007 38.5744 141.461 42.4155 145.139C46.2566 148.735 50.6697 151.473 55.655 153.352C60.6402 155.232 65.7889 156.172 71.1011 156.172C76.5767 156.172 81.7662 155.232 86.6697 153.352C91.655 151.391 96.0681 148.612 99.9092 145.016C103.75 141.339 106.774 136.885 108.981 131.654C111.187 126.424 112.291 120.539 112.291 114.001V0.117188H142.202V114.737C142.202 128.712 139.178 140.889 133.131 151.268C127.165 161.647 118.829 169.697 108.123 175.418C97.4983 181.139 85.1578 183.999 71.1011 183.999Z" fill="#1F1F28"/>
<path d="M166.653 180.322V0.117188H196.196V180.322H166.653Z" fill="#1F1F28"/>
<path d="M304.475 180.322C295.73 181.956 287.149 182.651 278.731 182.406C270.395 182.242 262.917 180.73 256.298 177.87C249.678 174.928 244.652 170.31 241.219 164.017C238.195 158.297 236.602 152.453 236.438 146.487C236.275 140.521 236.193 133.779 236.193 126.26V0.362365H265.614V124.544C265.614 129.856 265.655 134.514 265.737 138.519C265.9 142.524 266.758 145.793 268.311 148.326C271.253 153.23 275.953 155.967 282.409 156.539C288.865 157.112 296.22 156.785 304.475 155.559V180.322ZM212.166 71.0956V47.9265H304.475V71.0956H212.166Z" fill="#1F1F28"/>
<path d="M325.624 180.322V47.9265H355.168V114.124V180.322H325.624Z" fill="#1F1F28"/>
<path d="M538.626 180.322V99.9038C538.626 90.8323 536.379 83.7631 531.884 78.6961C527.389 73.5474 521.301 70.973 513.618 70.973C508.878 70.973 504.629 72.0763 500.869 74.2829C497.11 76.4078 494.127 79.5951 491.92 83.8448C489.714 88.0128 488.61 92.998 488.61 98.8005L475.494 91.0775C475.412 81.9242 477.455 73.8743 481.623 66.9276C485.873 59.8993 491.593 54.4237 498.785 50.5009C505.977 46.578 513.986 44.6166 522.813 44.6166C537.441 44.6166 548.638 49.0298 556.402 57.8561C564.247 66.6007 568.17 78.124 568.17 92.426V180.322H538.626ZM379.385 180.322V47.9265H405.496V88.9935H409.173V180.322H379.385ZM459.189 180.322V100.272C459.189 91.0366 456.942 83.8448 452.447 78.6961C447.952 73.5474 441.823 70.973 434.059 70.973C426.54 70.973 420.492 73.5474 415.916 78.6961C411.421 83.8448 409.173 90.5463 409.173 98.8005L395.934 89.9742C395.934 81.393 398.059 73.67 402.309 66.8051C406.558 59.9401 412.279 54.5463 419.471 50.6234C426.744 46.6189 434.876 44.6166 443.866 44.6166C453.755 44.6166 462.009 46.7415 468.629 50.9912C475.33 55.1592 480.315 60.88 483.584 68.1535C486.935 75.3454 488.61 83.477 488.61 92.5485V180.322H459.189Z" fill="#1F1F28"/>
<path d="M624.907 183.999C615.345 183.999 607.255 182.201 600.635 178.605C594.015 174.928 588.989 170.065 585.556 164.017C582.206 157.97 580.53 151.309 580.53 144.035C580.53 137.661 581.593 131.94 583.718 126.873C585.843 121.724 589.112 117.311 593.525 113.634C597.938 109.874 603.659 106.81 610.687 104.44C615.999 102.723 622.21 101.171 629.32 99.7812C636.512 98.3919 644.276 97.1252 652.612 95.981C661.03 94.7551 669.815 93.4475 678.969 92.0582L668.426 98.065C668.508 88.9118 666.465 82.1694 662.297 77.838C658.129 73.5065 651.1 71.3408 641.211 71.3408C635.245 71.3408 629.484 72.7301 623.927 75.5088C618.369 78.2875 614.487 83.0684 612.281 89.8516L585.311 81.393C588.58 70.1967 594.791 61.2069 603.945 54.4237C613.18 47.6405 625.602 44.2489 641.211 44.2489C652.98 44.2489 663.318 46.1694 672.226 50.0105C681.216 53.8516 687.877 60.1444 692.208 68.889C694.578 73.5474 696.008 78.3283 696.499 83.2318C696.989 88.0536 697.234 93.3249 697.234 99.0457V180.322H671.368V151.636L675.659 156.294C669.693 165.856 662.705 172.885 654.696 177.379C646.769 181.793 636.839 183.999 624.907 183.999ZM630.791 160.462C637.493 160.462 643.214 159.277 647.954 156.907C652.694 154.537 656.453 151.636 659.232 148.203C662.092 144.771 664.013 141.543 664.994 138.519C666.546 134.76 667.404 130.469 667.568 125.647C667.813 120.744 667.936 116.78 667.936 113.756L677.007 116.453C668.099 117.843 660.458 119.068 654.083 120.131C647.709 121.193 642.233 122.215 637.656 123.196C633.08 124.095 629.034 125.116 625.52 126.26C622.088 127.486 619.186 128.916 616.816 130.551C614.446 132.185 612.608 134.065 611.3 136.19C610.074 138.315 609.461 140.807 609.461 143.668C609.461 146.937 610.278 149.838 611.913 152.371C613.547 154.823 615.917 156.785 619.023 158.256C622.21 159.727 626.133 160.462 630.791 160.462Z" fill="#1F1F28"/>
<path d="M794.489 180.322C785.744 181.956 777.163 182.651 768.745 182.406C760.409 182.242 752.931 180.73 746.312 177.87C739.692 174.928 734.666 170.31 731.233 164.017C728.209 158.297 726.616 152.453 726.452 146.487C726.289 140.521 726.207 133.779 726.207 126.26V0.117188H755.628V124.544C755.628 129.856 755.669 134.514 755.751 138.519C755.914 142.524 756.772 145.793 758.325 148.326C761.267 153.23 765.967 155.967 772.423 156.539C778.879 157.112 786.234 156.785 794.489 155.559V180.322ZM702.18 71.0956V47.9265H794.489V71.0956H702.18Z" fill="#1F1F28"/>
<path d="M864.186 183.999C850.783 183.999 839.014 181.098 828.88 175.295C818.746 169.493 810.819 161.443 805.098 151.146C799.459 140.848 796.64 128.998 796.64 115.595C796.64 101.13 799.418 88.5849 804.976 77.9606C810.533 67.2545 818.256 58.9594 828.145 53.0752C838.033 47.191 849.475 44.2489 862.469 44.2489C876.199 44.2489 887.845 47.477 897.407 53.9333C907.051 60.3079 914.201 69.3385 918.86 81.0253C923.518 92.712 925.275 106.483 924.131 122.337H894.833V111.55C894.751 97.166 892.217 86.6643 887.232 80.0445C882.247 73.4248 874.401 70.1149 863.695 70.1149C851.6 70.1149 842.61 73.8743 836.726 81.393C830.842 88.83 827.9 99.7404 827.9 114.124C827.9 127.527 830.842 137.906 836.726 145.261C842.61 152.617 851.191 156.294 862.469 156.294C869.743 156.294 875.995 154.701 881.225 151.513C886.537 148.244 890.624 143.545 893.484 137.416L922.66 146.242C917.593 158.174 909.747 167.45 899.123 174.07C888.581 180.689 876.935 183.999 864.186 183.999ZM818.583 122.337V100.026H909.666V122.337H818.583Z" fill="#1F1F28"/>
<circle cx="340.421" cy="14.3725" r="14.3725" fill="#1F1F28"/>
<circle cx="938.369" cy="168.58" r="14.3725" fill="#1F1F28"/>
</svg>